PathFileType	4	(x/y/z)	A01_FAST_T0021.trc
DataRate	CameraRate	NumFrames	NumMarkers	Units	OrigDataRate	OrigDataStartFrame	OrigNumFrames
240	240	8	48	mm	240	144	287
Frame#	Time	TOP_HEAD			R_AC			L_AC			R_ASIS			L_ASIS			R_PSIS			L_PSIS			SACRAL			L_IC			R_IC			L_GT			R_GT			R_LAT_KNEE			R_MED_KNEE			L_MED_KNEE			L_LAT_KNEE			R_TOE			L_TOE			R_1ST_MET			L_1ST_MET			L_5TH_MET			R_5TH_MET			R_LAT_ANK			R_MED_ANK			L_MED_ANK			L_LAT_ANK			L_HEEL_SUP			R_HEEL_SUP			L_HEEL_LAT			R_HEEL_LAT			L_HEEL_MED			R_HEEL_MED			R_LL_PROX_POST			R_LL_PROX_ANT			R_LL_DIST_ANT			R_LL_DIST_POST			R_THIGH_PROX_POST			R_THIGH_PROX_ANT			R_THIGH_DIST_ANT			R_THIGH_DIST_POST			L_PROS_PROX_ANT			L_PROS_PROX_POST			L_PROS_DIST_POST			L_PROS_DIST_ANT			L_THIGH_PROX_ANT			L_THIGH_PROX_POST			L_THIGH_DIST_POST			L_THIGH_DIST_ANT			
		X1	Y1	Z1	X2	Y2	Z2	X3	Y3	Z3	X4	Y4	Z4	X5	Y5	Z5	X6	Y6	Z6	X7	Y7	Z7	X8	Y8	Z8	X9	Y9	Z9	X10	Y10	Z10	X11	Y11	Z11	X12	Y12	Z12	X13	Y13	Z13	X14	Y14	Z14	X15	Y15	Z15	X16	Y16	Z16	X17	Y17	Z17	X18	Y18	Z18	X19	Y19	Z19	X20	Y20	Z20	X21	Y21	Z21	X22	Y22	Z22	X23	Y23	Z23	X24	Y24	Z24	X25	Y25	Z25	X26	Y26	Z26	X27	Y27	Z27	X28	Y28	Z28	X29	Y29	Z29	X30	Y30	Z30	X31	Y31	Z31	X32	Y32	Z32	X33	Y33	Z33	X34	Y34	Z34	X35	Y35	Z35	X36	Y36	Z36	X37	Y37	Z37	X38	Y38	Z38	X39	Y39	Z39	X40	Y40	Z40	X41	Y41	Z41	X42	Y42	Z42	X43	Y43	Z43	X44	Y44	Z44	X45	Y45	Z45	X46	Y46	Z46	X47	Y47	Z47	X48	Y48	Z48	

144	0.59792	197.8	1773.5	346.07	34.946	1537.2	531.79	35.178	1518.8	80.235	44.26	1047.6	511.53	6.735	981.53	160.6	-181.39	1055.7	414.85	-184.05	1069.2	282.55	-201.4	1034.8	347.9	-8.2062	1115.2	126.87	3.7141	1159.8	526.3	-80.887	919.35	129.07	-4.7585	936.57	562.31	117.63	549.37	483.81	133.63	558.88	349.56	-188.87	531.29	357.66	-204.96	544.52	201	515.01	209.44	395.02	-254.35	69.103	260.72	459.23	148.41	345.07	-337.75	58.647	316.07	-368.93	53.924	190.16	436.47	123.24	474.81	304.54	118.04	447.38	308.62	131.36	345.47	-427.28	161.57	301.89	-459.2	166.31	233.67	-565.52	136.81	273.56	237.9	42.43	384.19	-563.78	106.19	242.46	256.16	25.798	420.13	-554.06	104.25	306.25	262.88	23.654	360.55	106.71	347.31	480.71	174.02	369.24	501.91	209.67	304.34	484.1	159.5	282.6	470.2	-0.82619	786.04	540.24	60.405	825.49	544.54	90.324	741.02	530.32	32.37	704.03	522.85	-202.47	450.15	214.41	-251.49	475.52	203.4	-285.87	423.17	212.72	-235.06	405.08	221.61	-65.207	764.9	167.69	-130.03	792.72	154.26	-143.52	718.3	168.07	-84.435	694.15	180.29
145	0.6021	205.02	1772.4	346.81	42.394	1535.5	532.82	42.265	1517.9	81.278	52.147	1046.8	511.7	14.272	980.01	160.82	-173.77	1054.3	415.26	-176.33	1067.7	282.87	-193.69	1033.3	348.31	-0.50519	1113.9	127.26	11.691	1158	526.88	-73.522	917.93	129.31	3.6726	935.72	562.53	126.97	549.06	483.74	142.47	558.54	349.67	-182.39	530.08	357.48	-198.39	543.45	200.87	521.78	204.12	392.47	-253.74	68.541	260.66	464.66	144	343.2	-337.07	58.993	316.08	-368.37	54.549	190.14	442.19	119.9	473.12	310.45	116.97	446.59	314.15	129.86	344.54	-425.26	163.21	301.86	-457.07	168.33	233.69	-563.71	140.07	273.61	241.88	43.131	383.88	-562.44	109.45	242.54	259.93	26.368	419.81	-552.7	107.42	306.31	266.16	23.647	360.2	114.98	347.27	480.91	182.62	368.76	501.51	217.64	303.64	483.5	167.23	282.22	470.05	8.1275	785.46	540.49	69.209	825.2	544.44	99.422	740.87	530.2	41.623	703.59	523.02	-197	449.08	214.3	-245.72	475.01	203.28	-280.72	423.07	212.63	-230.13	404.4	221.5	-58.318	763.55	167.83	-123.09	791.49	154.36	-136.72	717.08	168.09	-77.647	692.81	180.3
146	0.60628	212.31	1771.3	347.53	49.85	1533.7	533.89	49.338	1517	82.309	59.987	1046.1	511.88	21.872	978.53	161.1	-166.18	1053	415.6	-168.61	1066.2	283.12	-185.98	1031.9	348.65	7.2849	1112.7	127.66	19.637	1156.2	527.5	-66.057	916.52	129.57	12.052	935.02	562.76	136.34	548.9	483.72	151.4	558.35	349.84	-175.59	528.85	357.28	-191.5	542.36	200.74	528.27	198.28	390.11	-253.1	67.944	260.6	469.7	139.25	341.51	-336.32	59.383	316.1	-367.75	55.249	190.12	447.42	116.25	471.58	315.89	115.89	445.89	319.27	128.34	343.71	-423.07	165	301.84	-454.76	170.51	233.73	-561.7	143.57	273.67	245.31	43.942	383.64	-560.95	112.96	242.64	263.1	27.019	419.57	-551.18	110.83	306.4	268.85	23.733	359.92	123.1	347.42	481.15	191.09	368.4	501.15	225.41	303.03	482.94	174.74	281.98	469.94	17.083	785.02	540.76	77.991	825.07	544.33	108.53	740.88	530.09	50.894	703.3	523.23	-191.27	448	214.17	-239.67	474.5	203.16	-275.3	423	212.53	-224.95	403.72	221.4	-51.272	762.24	167.99	-116.01	790.27	154.47	-129.74	715.86	168.13	-70.662	691.5	180.33
147	0.61046	219.67	1770.3	348.23	57.314	1532	534.98	56.397	1516.1	83.323	67.775	1045.6	512.08	29.53	977.12	161.44	-158.63	1051.8	415.88	-160.88	1064.7	283.28	-178.28	1030.4	348.92	15.159	1111.4	128.08	27.546	1154.5	528.14	-58.495	915.11	129.85	20.366	934.48	563.02	145.71	548.9	483.74	160.38	558.32	350.07	-168.46	527.58	357.08	-184.3	541.23	200.59	534.48	192.02	388	-252.43	67.313	260.54	474.37	134.22	340.01	-335.51	59.819	316.13	-367.08	56.033	190.11	452.18	112.36	470.23	320.87	114.79	445.29	324.01	126.84	342.99	-420.69	166.93	301.82	-452.26	172.84	233.78	-559.46	147.32	273.75	248.27	44.853	383.47	-559.27	116.75	242.76	265.74	27.738	419.39	-549.48	114.51	306.51	271.03	23.918	359.7	131.08	347.75	481.42	199.42	368.16	500.85	232.98	302.52	482.45	182.04	281.89	469.87	26.013	784.72	541.05	86.729	825.11	544.22	117.61	741.05	529.98	60.15	703.16	523.46	-185.25	446.9	214.03	-233.33	474	203.02	-269.61	422.97	212.43	-219.5	403.06	221.28	-44.064	760.97	168.19	-108.78	789.05	154.61	-122.57	714.63	168.18	-63.474	690.22	180.38
148	0.61464	227.1	1769.4	348.9	64.788	1530.2	536.1	63.448	1515.3	84.316	75.504	1045.3	512.31	37.242	975.77	161.83	-151.12	1050.6	416.08	-153.16	1063.3	283.37	-170.61	1029.1	349.13	23.111	1110.1	128.51	35.416	1152.9	528.82	-50.837	913.73	130.16	28.6	934.1	563.3	155.06	549.05	483.81	169.37	558.45	350.34	-160.99	526.28	356.88	-176.77	540.09	200.43	540.39	185.43	386.15	-251.72	66.648	260.48	478.7	129.02	338.73	-334.64	60.307	316.17	-366.34	56.913	190.1	456.48	108.28	469.07	325.43	113.71	444.8	328.4	125.38	342.39	-418.11	169.02	301.82	-449.54	175.35	233.85	-556.98	151.35	273.86	250.82	45.85	383.36	-557.4	120.82	242.91	267.91	28.513	419.27	-547.57	118.45	306.65	272.77	24.207	359.54	138.9	348.28	481.71	207.58	368.06	500.6	240.34	302.12	482.02	189.13	281.95	469.86	34.892	784.56	541.38	95.398	825.29	544.12	126.65	741.38	529.89	69.359	703.17	523.72	-178.95	445.8	213.89	-226.67	473.51	202.89	-263.61	422.96	212.33	-213.77	402.41	221.17	-36.687	759.75	168.41	-101.39	787.84	154.77	-115.21	713.4	168.25	-56.076	688.97	180.45
149	0.61882	234.62	1768.5	349.54	72.27	1528.5	537.25	70.494	1514.5	85.283	83.166	1045.1	512.55	45.001	974.5	162.28	-143.65	1049.6	416.21	-145.44	1061.9	283.38	-162.96	1027.8	349.27	31.132	1108.9	128.96	43.24	1151.3	529.53	-43.086	912.36	130.49	36.74	933.9	563.59	164.38	549.36	483.94	178.36	558.74	350.67	-153.17	524.93	356.66	-168.89	538.92	200.27	546	178.63	384.61	-250.96	65.95	260.43	482.69	123.73	337.68	-333.68	60.852	316.22	-365.54	57.896	190.1	460.36	104.06	468.12	329.6	112.65	444.42	332.47	123.98	341.91	-415.3	171.27	301.83	-446.59	178.04	233.94	-554.23	155.65	274.01	253	46.918	383.3	-555.3	125.19	243.08	269.68	29.332	419.2	-545.45	122.68	306.83	274.14	24.6	359.43	146.57	348.98	482.04	215.58	368.08	500.42	247.5	301.82	481.68	196.01	282.15	469.9	43.695	784.56	541.73	103.98	825.63	544.05	135.6	741.85	529.82	78.493	703.32	524.02	-172.34	444.7	213.74	-219.68	473.03	202.75	-257.31	423	212.23	-207.76	401.78	221.05	-29.136	758.59	168.67	-93.845	786.64	154.95	-107.63	712.17	168.34	-48.46	687.77	180.56
150	0.623	242.22	1767.8	350.16	79.76	1526.9	538.41	77.54	1513.8	86.218	90.755	1045.2	512.8	52.8	973.32	162.79	-136.24	1048.7	416.28	-137.73	1060.6	283.32	-155.34	1026.6	349.35	39.216	1107.7	129.42	51.016	1149.7	530.26	-35.245	911.03	130.85	44.774	933.88	563.91	173.66	549.82	484.13	187.3	559.19	351.04	-144.98	523.55	356.45	-160.66	537.72	200.11	551.29	171.72	383.37	-250.17	65.221	260.39	486.37	118.43	336.86	-332.65	61.46	316.29	-364.66	58.995	190.11	463.84	99.769	467.39	333.38	111.63	444.15	336.25	122.67	341.55	-412.26	173.69	301.85	-443.39	180.9	234.05	-551.19	160.24	274.19	254.88	48.04	383.3	-552.96	129.87	243.29	271.11	30.181	419.17	-543.08	127.21	307.04	275.21	25.092	359.35	154.08	349.85	482.4	223.41	368.22	500.33	254.45	301.63	481.44	202.69	282.51	470.01	52.401	784.69	542.11	112.45	826.11	544	144.46	742.46	529.79	87.525	703.61	524.34	-165.41	443.6	213.59	-212.37	472.55	202.61	-250.69	423.07	212.13	-201.44	401.16	220.93	-21.407	757.49	168.96	-86.137	785.46	155.15	-99.848	710.95	168.46	-40.622	686.62	180.7
151	0.62719	249.91	1767	350.76	87.26	1525.2	539.59	84.591	1513.1	87.12	98.263	1045.3	513.08	60.632	972.24	163.34	-128.87	1047.9	416.27	-130.04	1059.3	283.18	-147.75	1025.5	349.37	47.35	1106.6	129.9	58.736	1148.3	531.01	-27.318	909.74	131.22	52.691	934.05	564.24	182.87	550.42	484.39	196.19	559.79	351.46	-136.43	522.12	356.23	-152.08	536.5	199.93	556.24	164.78	382.44	-249.33	64.465	260.35	489.74	113.21	336.26	-331.53	62.136	316.37	-363.68	60.219	190.13	466.93	95.448	466.87	336.82	110.64	443.98	339.75	121.44	341.33	-408.96	176.28	301.89	-439.93	183.96	234.19	-547.83	165.12	274.41	256.5	49.199	383.34	-550.36	134.87	243.54	272.25	31.045	419.18	-540.44	132.03	307.29	276.03	25.676	359.31	161.42	350.87	482.78	231.05	368.47	500.32	261.19	301.54	481.3	209.16	283	470.17	60.991	784.97	542.51	120.8	826.72	544	153.19	743.2	529.79	96.435	704.04	524.7	-158.17	442.49	213.42	-204.71	472.09	202.47	-243.74	423.19	212.02	-194.82	400.57	220.81	-13.496	756.46	169.29	-78.26	784.3	155.38	-91.845	709.74	168.6	-32.555	685.53	180.87
